<svg width="49" height="47" viewBox="0 0 49 47" fill="none" xmlns="http://www.w3.org/2000/svg">
<path d="M39.9063 23.0625C39.6929 23.2767 39.4393 23.4466 39.1602 23.5625C38.881 23.6784 38.5816 23.7381 38.2793 23.7381C37.977 23.7381 37.6777 23.6784 37.3985 23.5625C37.1193 23.4466 36.8658 23.2767 36.6524 23.0625L26.7969 13.207V41.3437C26.7969 41.9529 26.5549 42.5371 26.1241 42.9679C25.6934 43.3986 25.1092 43.6406 24.5 43.6406C23.8908 43.6406 23.3066 43.3986 22.8759 42.9679C22.4451 42.5371 22.2031 41.9529 22.2031 41.3437V13.207L12.3438 23.0625C11.9123 23.494 11.3271 23.7364 10.7168 23.7364C10.1066 23.7364 9.52138 23.494 9.08988 23.0625C8.65839 22.631 8.41598 22.0458 8.41598 21.4356C8.41598 20.8254 8.65839 20.2401 9.08988 19.8086L22.8711 6.02738C23.0845 5.81325 23.3381 5.64335 23.6173 5.52742C23.8965 5.4115 24.1958 5.35182 24.4981 5.35182C24.8004 5.35182 25.0997 5.4115 25.3789 5.52742C25.6581 5.64335 25.9117 5.81325 26.125 6.02738L39.9063 19.8086C40.1204 20.022 40.2903 20.2756 40.4063 20.5548C40.5222 20.834 40.5819 21.1333 40.5819 21.4356C40.5819 21.7379 40.5222 22.0372 40.4063 22.3164C40.2903 22.5956 40.1204 22.8492 39.9063 23.0625Z" fill="black"/>
</svg>
